<?xml version="1.0" encoding="UTF-8"?>
<svg id="Layer_2" data-name="Layer 2" xmlns="http://www.w3.org/2000/svg" viewBox="0 0 55.04 18.44">
  <defs>
    <style>
      .cls-1 {
        fill-rule: evenodd;
        stroke-width: 0px;
      }
    </style>
  </defs>
  <g id="Layer_1-2" data-name="Layer 1">
    <g id="Page-1">
      <g id="bank-note">
        <path id="Combined-Shape" class="cls-1" d="m11.66,18.44c.2-.12.4-.24.6-.37.2-.12.88-.55.97-.61,5.28-3.31,8.59-4.55,14.29-4.55s8.45,1.13,13.55,4.54c.53.35,1.03.68,1.51.99h3.43c-1.38-.67-2.83-1.56-4.53-2.7-5.22-3.5-8.15-4.68-13.96-4.68s-9.28,1.29-14.67,4.67c-.09.06-.77.49-.97.61-1.36.85-2.57,1.54-3.7,2.1h3.49ZM11.66,0C7.3,2.67,4.45,3.69,0,3.69h0v-1.84c3.16,0,5.48-.53,8.17-1.84h3.49Zm30.93,0c4.33,2.74,7.22,3.69,12.45,3.69v-1.84c-3.77,0-6.27-.5-9.02-1.84h-3.43ZM0,12.91c4.65,0,7.55-1.12,12.26-4.06.2-.12.88-.55.97-.61,5.28-3.31,8.59-4.55,14.29-4.55s8.45,1.13,13.55,4.54c5.22,3.5,8.15,4.68,13.96,4.68v-1.84c-5.65,0-8.45-1.13-13.55-4.54-5.22-3.5-8.15-4.68-13.96-4.68s-9.28,1.29-14.67,4.67c-.09.06-.77.49-.97.61-4.6,2.87-7.38,3.94-11.87,3.94v1.84h0Z"/>
      </g>
    </g>
  </g>
</svg>