<?xml version="1.0" encoding="UTF-8" standalone="no"?>
<!-- Created with Inkscape (http://www.inkscape.org/) -->

<svg
   width="14.562668mm"
   height="4.8789177mm"
   viewBox="0 0 14.562668 4.8789177"
   version="1.1"
   id="svg1"
   xml:space="preserve"
   xmlns:inkscape="http://www.inkscape.org/namespaces/inkscape"
   xmlns:sodipodi="http://sodipodi.sourceforge.net/DTD/sodipodi-0.dtd"
   xmlns="http://www.w3.org/2000/svg"
   xmlns:svg="http://www.w3.org/2000/svg"><sodipodi:namedview
     id="namedview1"
     pagecolor="#ffffff"
     bordercolor="#000000"
     borderopacity="0.25"
     inkscape:showpageshadow="2"
     inkscape:pageopacity="0.0"
     inkscape:pagecheckerboard="0"
     inkscape:deskcolor="#d1d1d1"
     inkscape:document-units="mm"><inkscape:page
       x="0"
       y="0"
       width="14.562668"
       height="4.8789177"
       id="page2"
       margin="0"
       bleed="0" /></sodipodi:namedview><defs
     id="defs1"><style
       id="style1">
      .cls-1 {
        fill-rule: evenodd;
        stroke-width: 0px;
      }
    </style></defs><g
     inkscape:label="Layer 1"
     inkscape:groupmode="layer"
     id="layer1"
     transform="translate(27.584158,-95.924982)"><path
       id="Combined-Shape"
       class="cls-1"
       d="m -24.499116,100.80389 c 0.05292,-0.0318 0.105833,-0.0635 0.15875,-0.0979 0.05292,-0.0317 0.232833,-0.14553 0.256646,-0.1614 1.396999,-0.875766 2.272769,-1.203846 3.780899,-1.203846 1.50812,0 2.23573,0.29897 3.5851,1.201196 0.14023,0.0926 0.27252,0.17992 0.39952,0.26194 h 0.90752 c -0.36512,-0.17727 -0.74877,-0.41275 -1.19856,-0.71437 -1.38113,-0.926046 -2.15635,-1.238242 -3.69358,-1.238242 -1.53723,0 -2.45534,0.341306 -3.881441,1.235592 -0.02381,0.0159 -0.203729,0.12965 -0.256646,0.1614 -0.359833,0.22489 -0.679979,0.40745 -0.978958,0.55562 h 0.923396 z m 0,-4.878912 c -1.153584,0.70644 -1.907646,0.97632 -3.085042,0.97632 v 0 -0.48684 c 0.836083,0 1.449917,-0.14023 2.161646,-0.48683 h 0.923396 z m 8.183565,0 c 1.14564,0.72496 1.91029,0.97632 3.29406,0.97632 v -0.48684 c -0.99748,0 -1.65894,-0.13229 -2.38654,-0.48683 h -0.90752 z m -11.268607,3.415776 c 1.230313,0 1.997604,-0.29634 3.243792,-1.074206 0.05292,-0.0318 0.232833,-0.14552 0.256646,-0.1614 1.396999,-0.87577 2.272769,-1.20385 3.780899,-1.20385 1.50812,0 2.23573,0.29898 3.5851,1.20121 1.38113,0.926036 2.15636,1.238246 3.69358,1.238246 v -0.486836 c -1.49489,0 -2.23572,-0.29898 -3.5851,-1.20121 -1.38113,-0.92604 -2.15635,-1.23825 -3.69358,-1.23825 -1.53723,0 -2.45534,0.34132 -3.881441,1.23561 -0.02381,0.0159 -0.203729,0.12964 -0.256646,0.16139 -1.217083,0.75936 -1.952625,1.04246 -3.140604,1.04246 v 0.486836 0 z"
       style="fill:#ffffff"
       sodipodi:nodetypes="cccsccccsccccccsccccccccccccccsccccscccccc"
       inkscape:export-filename="wave-2.svg"
       inkscape:export-xdpi="96"
       inkscape:export-ydpi="96" /></g></svg>
